SplineFontDB: 3.2
FontName: Dotsies
FullName: Dotsies Regular
FamilyName: Dotsies
Weight: Regular
Copyright: Copyright LukeAtmeyAceFontMaker 2013
Version: 1.0
ItalicAngle: 0
UnderlinePosition: 150
UnderlineWidth: 100
Ascent: 800
Descent: 200
InvalidEm: 0
sfntRevision: 0x00010000
LayerCount: 2
Layer: 0 0 "Back" 1
Layer: 1 0 "Fore" 0
XUID: [1021 146 1413257823 905811]
StyleMap: 0x0040
FSType: 4
OS2Version: 2
OS2_WeightWidthSlopeOnly: 0
OS2_UseTypoMetrics: 0
CreationTime: 1747412145
ModificationTime: 315532800
PfmFamily: 81
TTFWeight: 400
TTFWidth: 5
LineGap: 0
VLineGap: 0
Panose: 0 0 4 0 0 0 0 0 0 0
OS2TypoAscent: 1250
OS2TypoAOffset: 0
OS2TypoDescent: 0
OS2TypoDOffset: 0
OS2TypoLinegap: 0
OS2WinAscent: 1250
OS2WinAOffset: 0
OS2WinDescent: 0
OS2WinDOffset: 0
HheadAscent: 1250
HheadAOffset: 0
HheadDescent: 0
HheadDOffset: 0
OS2SubXSize: 1000
OS2SubYSize: 1000
OS2SubXOff: 0
OS2SubYOff: 0
OS2SupXSize: 1000
OS2SupYSize: 1000
OS2SupXOff: 0
OS2SupYOff: 1000
OS2StrikeYSize: 100
OS2StrikeYPos: 400
OS2CapHeight: 500
OS2Vendor: 'FSTR'
OS2CodePages: 00000001.00000000
OS2UnicodeRanges: 00000000.00000000.00000000.00000000
DEI: 91125
LangName: 1033 "" "" "" "Dotsies" "" "Version 1.0" "" "FontStruct is a trademark of FontStruct.com" "https://fontstruct.com" "LukeAtmeyAceFontMaker" "+IBwA-Dotsies+IB0A was built with FontStruct+AAoA-Designer description: Dotsies is a font created by Craig Muth. It takes up less space then the Roman letters, so you can read them more efficiently.+AAoA" "https://fontstruct.com/fontstructions/show/912087/dotsies_3" "https://fontstruct.com/fontstructors/show/936013/lukeatmeyacefontmaker" "Creative Commons Attribution Share Alike" "http://creativecommons.org/licenses/by-sa/3.0/" "" "" "" "" "Five big quacking zephyrs jolt my wax bed"
Encoding: UnicodeBmp
UnicodeInterp: none
NameList: AGL For New Fonts
DisplaySize: -48
AntiAlias: 1
FitToEm: 0
WinInfo: 0 34 11
BeginChars: 65537 54

StartChar: .notdef
Encoding: 65536 -1 0
Width: 1211
GlyphClass: 1
Flags: W
LayerCount: 2
Fore
SplineSet
892 50 m 1
 69 50 l 1
 481 606 l 1
 892 50 l 1
50 69 m 1
 50 1181 l 1
 462 625 l 1
 50 69 l 1
912 69 m 1
 500 625 l 1
 912 1181 l 1
 912 69 l 1
481 644 m 1
 69 1200 l 1
 892 1200 l 1
 481 644 l 1
0 0 m 1
 962 0 l 1
 962 1250 l 1
 0 1250 l 1
 0 0 l 1
EndSplineSet
Validated: 9
EndChar

StartChar: A
Encoding: 65 65 2
Width: 250
GlyphClass: 1
Flags: W
LayerCount: 2
Fore
SplineSet
0 1000 m 1
 250 1000 l 1
 250 1250 l 1
 0 1250 l 1
 0 1000 l 1
EndSplineSet
Validated: 9
EndChar

StartChar: B
Encoding: 66 66 3
Width: 250
GlyphClass: 1
Flags: W
LayerCount: 2
Fore
SplineSet
0 750 m 1
 250 750 l 1
 250 1000 l 1
 0 1000 l 1
 0 750 l 1
EndSplineSet
Validated: 9
EndChar

StartChar: C
Encoding: 67 67 4
Width: 250
GlyphClass: 1
Flags: W
LayerCount: 2
Fore
SplineSet
0 500 m 1
 250 500 l 1
 250 750 l 1
 0 750 l 1
 0 500 l 1
EndSplineSet
Validated: 9
EndChar

StartChar: D
Encoding: 68 68 5
Width: 250
GlyphClass: 1
Flags: W
LayerCount: 2
Fore
SplineSet
0 250 m 1
 250 250 l 1
 250 500 l 1
 0 500 l 1
 0 250 l 1
EndSplineSet
Validated: 9
EndChar

StartChar: E
Encoding: 69 69 6
Width: 250
GlyphClass: 1
Flags: W
LayerCount: 2
Fore
SplineSet
0 0 m 1
 250 0 l 1
 250 250 l 1
 0 250 l 1
 0 0 l 1
EndSplineSet
Validated: 9
EndChar

StartChar: F
Encoding: 70 70 7
Width: 250
GlyphClass: 1
Flags: W
LayerCount: 2
Fore
SplineSet
0 750 m 1
 250 750 l 1
 250 1250 l 1
 0 1250 l 1
 0 750 l 1
EndSplineSet
Validated: 9
EndChar

StartChar: G
Encoding: 71 71 8
Width: 250
GlyphClass: 1
Flags: W
LayerCount: 2
Fore
SplineSet
0 500 m 1
 250 500 l 1
 250 1000 l 1
 0 1000 l 1
 0 500 l 1
EndSplineSet
Validated: 9
EndChar

StartChar: H
Encoding: 72 72 9
Width: 250
GlyphClass: 1
Flags: W
LayerCount: 2
Fore
SplineSet
0 250 m 1
 250 250 l 1
 250 750 l 1
 0 750 l 1
 0 250 l 1
EndSplineSet
Validated: 9
EndChar

StartChar: I
Encoding: 73 73 10
Width: 250
GlyphClass: 1
Flags: W
LayerCount: 2
Fore
SplineSet
0 0 m 1
 250 0 l 1
 250 500 l 1
 0 500 l 1
 0 0 l 1
EndSplineSet
Validated: 9
EndChar

StartChar: J
Encoding: 74 74 11
Width: 250
GlyphClass: 1
Flags: W
LayerCount: 2
Fore
SplineSet
0 500 m 1
 250 500 l 1
 250 750 l 1
 0 750 l 1
 0 500 l 1
0 1000 m 1
 250 1000 l 1
 250 1250 l 1
 0 1250 l 1
 0 1000 l 1
EndSplineSet
Validated: 9
EndChar

StartChar: K
Encoding: 75 75 12
Width: 250
GlyphClass: 1
Flags: W
LayerCount: 2
Fore
SplineSet
0 250 m 1
 250 250 l 1
 250 500 l 1
 0 500 l 1
 0 250 l 1
0 750 m 1
 250 750 l 1
 250 1000 l 1
 0 1000 l 1
 0 750 l 1
EndSplineSet
Validated: 9
EndChar

StartChar: L
Encoding: 76 76 13
Width: 250
GlyphClass: 1
Flags: W
LayerCount: 2
Fore
SplineSet
0 0 m 1
 250 0 l 1
 250 250 l 1
 0 250 l 1
 0 0 l 1
0 500 m 1
 250 500 l 1
 250 750 l 1
 0 750 l 1
 0 500 l 1
EndSplineSet
Validated: 9
EndChar

StartChar: M
Encoding: 77 77 14
Width: 250
GlyphClass: 1
Flags: W
LayerCount: 2
Fore
SplineSet
0 250 m 1
 250 250 l 1
 250 500 l 1
 0 500 l 1
 0 250 l 1
0 1000 m 1
 250 1000 l 1
 250 1250 l 1
 0 1250 l 1
 0 1000 l 1
EndSplineSet
Validated: 9
EndChar

StartChar: N
Encoding: 78 78 15
Width: 250
GlyphClass: 1
Flags: W
LayerCount: 2
Fore
SplineSet
0 0 m 1
 250 0 l 1
 250 250 l 1
 0 250 l 1
 0 0 l 1
0 750 m 1
 250 750 l 1
 250 1000 l 1
 0 1000 l 1
 0 750 l 1
EndSplineSet
Validated: 9
EndChar

StartChar: O
Encoding: 79 79 16
Width: 250
GlyphClass: 1
Flags: W
LayerCount: 2
Fore
SplineSet
0 0 m 1
 250 0 l 1
 250 250 l 1
 0 250 l 1
 0 0 l 1
0 1000 m 1
 250 1000 l 1
 250 1250 l 1
 0 1250 l 1
 0 1000 l 1
EndSplineSet
Validated: 9
EndChar

StartChar: P
Encoding: 80 80 17
Width: 250
GlyphClass: 1
Flags: W
LayerCount: 2
Fore
SplineSet
0 500 m 1
 250 500 l 1
 250 1250 l 1
 0 1250 l 1
 0 500 l 1
EndSplineSet
Validated: 9
EndChar

StartChar: Q
Encoding: 81 81 18
Width: 250
GlyphClass: 1
Flags: W
LayerCount: 2
Fore
SplineSet
0 250 m 1
 250 250 l 1
 250 500 l 1
 0 500 l 1
 0 250 l 1
0 750 m 1
 250 750 l 1
 250 1250 l 1
 0 1250 l 1
 0 750 l 1
EndSplineSet
Validated: 9
EndChar

StartChar: R
Encoding: 82 82 19
Width: 250
GlyphClass: 1
Flags: W
LayerCount: 2
Fore
SplineSet
0 250 m 1
 250 250 l 1
 250 750 l 1
 0 750 l 1
 0 250 l 1
0 1000 m 1
 250 1000 l 1
 250 1250 l 1
 0 1250 l 1
 0 1000 l 1
EndSplineSet
Validated: 9
EndChar

StartChar: S
Encoding: 83 83 20
Width: 250
GlyphClass: 1
Flags: W
LayerCount: 2
Fore
SplineSet
0 250 m 1
 250 250 l 1
 250 1000 l 1
 0 1000 l 1
 0 250 l 1
EndSplineSet
Validated: 9
EndChar

StartChar: T
Encoding: 84 84 21
Width: 250
GlyphClass: 1
Flags: W
LayerCount: 2
Fore
SplineSet
0 0 m 1
 250 0 l 1
 250 250 l 1
 0 250 l 1
 0 0 l 1
0 500 m 1
 250 500 l 1
 250 1000 l 1
 0 1000 l 1
 0 500 l 1
EndSplineSet
Validated: 9
EndChar

StartChar: U
Encoding: 85 85 22
Width: 250
GlyphClass: 1
Flags: W
LayerCount: 2
Fore
SplineSet
0 0 m 1
 250 0 l 1
 250 500 l 1
 0 500 l 1
 0 0 l 1
0 750 m 1
 250 750 l 1
 250 1000 l 1
 0 1000 l 1
 0 750 l 1
EndSplineSet
Validated: 9
EndChar

StartChar: V
Encoding: 86 86 23
Width: 250
GlyphClass: 1
Flags: W
LayerCount: 2
Fore
SplineSet
0 0 m 1
 250 0 l 1
 250 750 l 1
 0 750 l 1
 0 0 l 1
EndSplineSet
Validated: 9
EndChar

StartChar: W
Encoding: 87 87 24
Width: 250
GlyphClass: 1
Flags: W
LayerCount: 2
Fore
SplineSet
0 0 m 1
 250 0 l 1
 250 250 l 1
 0 250 l 1
 0 0 l 1
0 750 m 1
 250 750 l 1
 250 1250 l 1
 0 1250 l 1
 0 750 l 1
EndSplineSet
Validated: 9
EndChar

StartChar: X
Encoding: 88 88 25
Width: 250
GlyphClass: 1
Flags: W
LayerCount: 2
Fore
SplineSet
0 0 m 1
 250 0 l 1
 250 250 l 1
 0 250 l 1
 0 0 l 1
0 500 m 1
 250 500 l 1
 250 750 l 1
 0 750 l 1
 0 500 l 1
0 1000 m 1
 250 1000 l 1
 250 1250 l 1
 0 1250 l 1
 0 1000 l 1
EndSplineSet
Validated: 9
EndChar

StartChar: Y
Encoding: 89 89 26
Width: 250
GlyphClass: 1
Flags: W
LayerCount: 2
Fore
SplineSet
0 0 m 1
 250 0 l 1
 250 500 l 1
 0 500 l 1
 0 0 l 1
0 1000 m 1
 250 1000 l 1
 250 1250 l 1
 0 1250 l 1
 0 1000 l 1
EndSplineSet
Validated: 9
EndChar

StartChar: Z
Encoding: 90 90 27
Width: 250
GlyphClass: 1
Flags: W
LayerCount: 2
Fore
SplineSet
0 0 m 1
 250 0 l 1
 250 500 l 1
 0 500 l 1
 0 0 l 1
0 750 m 1
 250 750 l 1
 250 1250 l 1
 0 1250 l 1
 0 750 l 1
EndSplineSet
Validated: 9
EndChar

StartChar: a
Encoding: 97 97 28
Width: 250
Flags: W
HStem: 1000 250
VStem: 0 250
LayerCount: 2
Fore
SplineSet
0 1000 m 1
 250 1000 l 1
 250 1250 l 1
 0 1250 l 1
 0 1000 l 1
EndSplineSet
Validated: 9
EndChar

StartChar: b
Encoding: 98 98 29
Width: 250
Flags: W
HStem: 750 250
VStem: 0 250
LayerCount: 2
Fore
SplineSet
0 750 m 1
 250 750 l 1
 250 1000 l 1
 0 1000 l 1
 0 750 l 1
EndSplineSet
Validated: 9
EndChar

StartChar: c
Encoding: 99 99 30
Width: 250
Flags: W
HStem: 500 250
VStem: 0 250
LayerCount: 2
Fore
SplineSet
0 500 m 1
 250 500 l 1
 250 750 l 1
 0 750 l 1
 0 500 l 1
EndSplineSet
Validated: 9
EndChar

StartChar: d
Encoding: 100 100 31
Width: 250
Flags: W
HStem: 250 250
VStem: 0 250
LayerCount: 2
Fore
SplineSet
0 250 m 1
 250 250 l 1
 250 500 l 1
 0 500 l 1
 0 250 l 1
EndSplineSet
Validated: 9
EndChar

StartChar: e
Encoding: 101 101 32
Width: 250
Flags: W
HStem: 0 250
VStem: 0 250
LayerCount: 2
Fore
SplineSet
0 0 m 1
 250 0 l 1
 250 250 l 1
 0 250 l 1
 0 0 l 1
EndSplineSet
Validated: 9
EndChar

StartChar: f
Encoding: 102 102 33
Width: 250
Flags: W
VStem: 0 250
LayerCount: 2
Fore
SplineSet
0 750 m 1
 250 750 l 1
 250 1250 l 1
 0 1250 l 1
 0 750 l 1
EndSplineSet
Validated: 9
EndChar

StartChar: g
Encoding: 103 103 34
Width: 250
Flags: W
VStem: 0 250
LayerCount: 2
Fore
SplineSet
0 500 m 1
 250 500 l 1
 250 1000 l 1
 0 1000 l 1
 0 500 l 1
EndSplineSet
Validated: 9
EndChar

StartChar: h
Encoding: 104 104 35
Width: 250
Flags: W
VStem: 0 250
LayerCount: 2
Fore
SplineSet
0 250 m 1
 250 250 l 1
 250 750 l 1
 0 750 l 1
 0 250 l 1
EndSplineSet
Validated: 9
EndChar

StartChar: i
Encoding: 105 105 36
Width: 250
Flags: W
VStem: 0 250
LayerCount: 2
Fore
SplineSet
0 0 m 1
 250 0 l 1
 250 500 l 1
 0 500 l 1
 0 0 l 1
EndSplineSet
Validated: 9
EndChar

StartChar: j
Encoding: 106 106 37
Width: 250
Flags: W
VStem: 0 250
LayerCount: 2
Fore
SplineSet
0 500 m 1
 250 500 l 1
 250 750 l 1
 0 750 l 1
 0 500 l 1
0 1000 m 1
 250 1000 l 1
 250 1250 l 1
 0 1250 l 1
 0 1000 l 1
EndSplineSet
Validated: 9
EndChar

StartChar: k
Encoding: 107 107 38
Width: 250
Flags: W
VStem: 0 250
LayerCount: 2
Fore
SplineSet
0 250 m 1
 250 250 l 1
 250 500 l 1
 0 500 l 1
 0 250 l 1
0 750 m 1
 250 750 l 1
 250 1000 l 1
 0 1000 l 1
 0 750 l 1
EndSplineSet
Validated: 9
EndChar

StartChar: l
Encoding: 108 108 39
Width: 250
Flags: W
VStem: 0 250
LayerCount: 2
Fore
SplineSet
0 0 m 1
 250 0 l 1
 250 250 l 1
 0 250 l 1
 0 0 l 1
0 500 m 1
 250 500 l 1
 250 750 l 1
 0 750 l 1
 0 500 l 1
EndSplineSet
Validated: 9
EndChar

StartChar: m
Encoding: 109 109 40
Width: 250
Flags: W
VStem: 0 250
LayerCount: 2
Fore
SplineSet
0 250 m 1
 250 250 l 1
 250 500 l 1
 0 500 l 1
 0 250 l 1
0 1000 m 1
 250 1000 l 1
 250 1250 l 1
 0 1250 l 1
 0 1000 l 1
EndSplineSet
Validated: 9
EndChar

StartChar: n
Encoding: 110 110 41
Width: 250
Flags: W
VStem: 0 250
LayerCount: 2
Fore
SplineSet
0 0 m 1
 250 0 l 1
 250 250 l 1
 0 250 l 1
 0 0 l 1
0 750 m 1
 250 750 l 1
 250 1000 l 1
 0 1000 l 1
 0 750 l 1
EndSplineSet
Validated: 9
EndChar

StartChar: o
Encoding: 111 111 42
Width: 250
Flags: W
VStem: 0 250
LayerCount: 2
Fore
SplineSet
0 0 m 1
 250 0 l 1
 250 250 l 1
 0 250 l 1
 0 0 l 1
0 1000 m 1
 250 1000 l 1
 250 1250 l 1
 0 1250 l 1
 0 1000 l 1
EndSplineSet
Validated: 9
EndChar

StartChar: p
Encoding: 112 112 43
Width: 250
Flags: W
VStem: 0 250
LayerCount: 2
Fore
SplineSet
0 500 m 1
 250 500 l 1
 250 1250 l 1
 0 1250 l 1
 0 500 l 1
EndSplineSet
Validated: 9
EndChar

StartChar: q
Encoding: 113 113 44
Width: 250
Flags: W
VStem: 0 250
LayerCount: 2
Fore
SplineSet
0 250 m 1
 250 250 l 1
 250 500 l 1
 0 500 l 1
 0 250 l 1
0 750 m 1
 250 750 l 1
 250 1250 l 1
 0 1250 l 1
 0 750 l 1
EndSplineSet
Validated: 9
EndChar

StartChar: r
Encoding: 114 114 45
Width: 250
Flags: W
VStem: 0 250
LayerCount: 2
Fore
SplineSet
0 250 m 1
 250 250 l 1
 250 750 l 1
 0 750 l 1
 0 250 l 1
0 1000 m 1
 250 1000 l 1
 250 1250 l 1
 0 1250 l 1
 0 1000 l 1
EndSplineSet
Validated: 9
EndChar

StartChar: s
Encoding: 115 115 46
Width: 250
Flags: W
VStem: 0 250
LayerCount: 2
Fore
SplineSet
0 250 m 1
 250 250 l 1
 250 1000 l 1
 0 1000 l 1
 0 250 l 1
EndSplineSet
Validated: 9
EndChar

StartChar: t
Encoding: 116 116 47
Width: 250
Flags: W
VStem: 0 250
LayerCount: 2
Fore
SplineSet
0 0 m 1
 250 0 l 1
 250 250 l 1
 0 250 l 1
 0 0 l 1
0 500 m 1
 250 500 l 1
 250 1000 l 1
 0 1000 l 1
 0 500 l 1
EndSplineSet
Validated: 9
EndChar

StartChar: u
Encoding: 117 117 48
Width: 250
Flags: W
VStem: 0 250
LayerCount: 2
Fore
SplineSet
0 0 m 1
 250 0 l 1
 250 500 l 1
 0 500 l 1
 0 0 l 1
0 750 m 1
 250 750 l 1
 250 1000 l 1
 0 1000 l 1
 0 750 l 1
EndSplineSet
Validated: 9
EndChar

StartChar: v
Encoding: 118 118 49
Width: 250
Flags: W
VStem: 0 250
LayerCount: 2
Fore
SplineSet
0 0 m 1
 250 0 l 1
 250 750 l 1
 0 750 l 1
 0 0 l 1
EndSplineSet
Validated: 9
EndChar

StartChar: w
Encoding: 119 119 50
Width: 250
Flags: W
VStem: 0 250
LayerCount: 2
Fore
SplineSet
0 0 m 1
 250 0 l 1
 250 250 l 1
 0 250 l 1
 0 0 l 1
0 750 m 1
 250 750 l 1
 250 1250 l 1
 0 1250 l 1
 0 750 l 1
EndSplineSet
Validated: 9
EndChar

StartChar: x
Encoding: 120 120 51
Width: 250
Flags: W
VStem: 0 250
LayerCount: 2
Fore
SplineSet
0 0 m 1
 250 0 l 1
 250 250 l 1
 0 250 l 1
 0 0 l 1
0 500 m 1
 250 500 l 1
 250 750 l 1
 0 750 l 1
 0 500 l 1
0 1000 m 1
 250 1000 l 1
 250 1250 l 1
 0 1250 l 1
 0 1000 l 1
EndSplineSet
Validated: 9
EndChar

StartChar: y
Encoding: 121 121 52
Width: 250
Flags: W
VStem: 0 250
LayerCount: 2
Fore
SplineSet
0 0 m 1
 250 0 l 1
 250 500 l 1
 0 500 l 1
 0 0 l 1
0 1000 m 1
 250 1000 l 1
 250 1250 l 1
 0 1250 l 1
 0 1000 l 1
EndSplineSet
Validated: 9
EndChar

StartChar: z
Encoding: 122 122 53
Width: 250
Flags: W
VStem: 0 250
LayerCount: 2
Fore
SplineSet
0 0 m 1
 250 0 l 1
 250 500 l 1
 0 500 l 1
 0 0 l 1
0 750 m 1
 250 750 l 1
 250 1250 l 1
 0 1250 l 1
 0 750 l 1
EndSplineSet
Validated: 9
EndChar
